Tron 20th Anniversary Edition DVD rip (1982)


 
http://www.imdb.com/title/tt0084827/



20th Anniversary Collectors Edition DVDrip\TRON.Title1.avi

Format                           : AVI
Format/Info                      : Audio Video Interleave
Format profile                   : OpenDML
File size                        : 1.47 GiB
Duration                         : 1h 35mn
Overall bit rate                 : 2 194 Kbps
Movie name                       : TRON.Title1.DVDRip
Writing application              : Lavf52.78.4
Original source form/Name        : TRON

Video
ID                               : 0
Format                           : AVC
Format/Info                      : Advanced Video Codec
Codec ID                         : H264
Duration                         : 1h 35mn
Bit rate                         : 1 733 Kbps
Width                            : 720 pixels
Height                           : 328 pixels
Display aspect ratio             : 2.2:1
Frame rate                       : 29.970 fps
Color space                      : YUV
Chroma subsampling               : 4:2:0
Bits/(Pixel*Frame)               : 0.245
Stream size                      : 1.16 GiB (79%)

Audio
ID                               : 1
Format                           : AC-3
Format/Info                      : Audio Coding 3
Mode extension                   : CM (complete main)
Codec ID                         : 2000
Duration                         : 1h 35mn
Bit rate mode                    : Constant
Bit rate                         : 448 Kbps
Channel(s)                       : 6 channels
Channel positions                : Front: L C R, Side: L R, LFE
Sampling rate                    : 48.0 KHz
Bit depth                        : 16 bits
Stream size                      : 307 MiB (20%)
Alignment                        : Aligned on interleaves
Interleave, duration             : 32 ms (0.96 video frame)
Interleave, preload duration     : 32 ms

